grf
version=1
nRows=52
nColumns=19
inDegrees=yes
endheader
time	ground_force_1_vx	ground_force_1_vy	ground_force_1_vz	ground_force_1_px	ground_force_1_py	ground_force_1_pz	ground_moment_1_mx	ground_moment_1_my	ground_moment_1_mz	ground_force_2_vx	ground_force_2_vy	ground_force_2_vz	ground_force_2_px	ground_force_2_py	ground_force_2_pz	ground_moment_2_mx	ground_moment_2_my	ground_moment_2_mz
0.000000	20.932030	1505.296173	-477.041282	0.140253	0.000000	-0.824926	-0.000000	15.432710	0.000000	-26.687885	1579.724041	482.316898	0.175640	0.000000	-1.590936	-0.000000	-15.186759	-0.000000
0.001000	21.036273	1505.377993	-477.137820	0.140201	0.000000	-0.824381	-0.000000	15.457845	0.000000	-26.528518	1579.028715	482.249598	0.175125	0.000000	-1.590341	-0.000000	-15.218023	-0.000000
0.002000	21.142777	1505.475871	-477.238041	0.139632	0.000000	-0.825749	-0.000000	15.482413	0.000000	-26.361599	1578.343956	482.178130	0.174861	0.000000	-1.590423	-0.000000	-15.248630	-0.000000
0.003000	21.251067	1505.592912	-477.341712	0.140305	0.000000	-0.824805	-0.000000	15.506202	0.000000	-26.187730	1577.676582	482.102848	0.175032	0.000000	-1.591228	-0.000000	-15.278345	-0.000000
0.004000	21.360693	1505.732030	-477.448629	0.139886	0.000000	-0.825939	-0.000000	15.529064	0.000000	-26.007456	1577.032333	482.024064	0.175078	0.000000	-1.590836	-0.000000	-15.307035	-0.000000
0.005000	21.471254	1505.895598	-477.558556	0.140049	0.000000	-0.825250	-0.000000	15.550893	0.000000	-25.821365	1576.415796	481.941927	0.175325	0.000000	-1.591231	-0.000000	-15.334655	-0.000000
0.006000	21.582396	1506.084922	-477.671190	0.139868	0.000000	-0.825058	-0.000000	15.571611	0.000000	-25.630104	1575.830653	481.856312	0.174544	0.000000	-1.590770	-0.000000	-15.361204	-0.000000
0.007000	21.693840	1506.300295	-477.786211	0.139803	0.000000	-0.825086	-0.000000	15.591170	0.000000	-25.434311	1575.279774	481.766868	0.175033	0.000000	-1.590879	-0.000000	-15.386693	-0.000000
0.008000	21.805395	1506.541751	-477.903379	0.139605	0.000000	-0.823310	-0.000000	15.609565	0.000000	-25.234536	1574.765174	481.673210	0.175353	0.000000	-1.590408	-0.000000	-15.411138	-0.000000
0.009000	21.916887	1506.809896	-478.022652	0.139737	0.000000	-0.825281	-0.000000	15.626862	0.000000	-25.031172	1574.288305	481.575049	0.175031	0.000000	-1.590619	-0.000000	-15.434538	-0.000000
0.010000	22.028070	1507.106359	-478.144257	0.140161	0.000000	-0.825388	-0.000000	15.643207	0.000000	-24.824434	1573.850555	481.472198	0.175303	0.000000	-1.592089	-0.000000	-15.456869	-0.000000
0.011000	22.138610	1507.433608	-478.268606	0.140132	0.000000	-0.824785	-0.000000	15.658771	0.000000	-24.614397	1573.453216	481.364647	0.175203	0.000000	-1.589991	-0.000000	-15.478103	-0.000000
0.012000	22.248220	1507.794234	-478.396141	0.139801	0.000000	-0.823826	-0.000000	15.673688	0.000000	-24.401116	1573.097014	481.252653	0.174811	0.000000	-1.590393	-0.000000	-15.498226	-0.000000
0.013000	22.356778	1508.190161	-478.527296	0.139346	0.000000	-0.824593	-0.000000	15.688020	0.000000	-24.184795	1572.781911	481.136630	0.174538	0.000000	-1.590484	-0.000000	-15.517216	-0.000000
0.014000	22.464317	1508.622448	-478.662504	0.139832	0.000000	-0.825241	0.000000	15.701791	0.000000	-23.965850	1572.507376	481.016962	0.174477	0.000000	-1.590809	-0.000000	-15.535048	-0.000000
0.015000	22.570963	1509.091768	-478.802151	0.139821	0.000000	-0.825027	0.000000	15.714998	0.000000	-23.744816	1572.272713	480.893957	0.174941	0.000000	-1.591019	-0.000000	-15.551705	-0.000000
0.016000	22.676852	1509.598834	-478.946522	0.140601	0.000000	-0.825294	0.000000	15.727612	0.000000	-23.522233	1572.077327	480.767871	0.174693	0.000000	-1.590687	-0.000000	-15.567184	-0.000000
0.017000	22.782005	1510.144335	-479.095833	0.138742	0.000000	-0.823826	0.000000	15.739587	0.000000	-23.298612	1571.920758	480.638928	0.175266	0.000000	-1.591682	-0.000000	-15.581470	-0.000000
0.018000	22.886206	1510.728584	-479.250274	0.139569	0.000000	-0.824738	0.000000	15.750910	0.000000	-23.074420	1571.802156	480.507400	0.173919	0.000000	-1.590749	-0.000000	-15.594518	-0.000000
0.019000	22.988970	1511.351185	-479.409967	0.139447	0.000000	-0.824167	0.000000	15.761634	0.000000	-22.850073	1571.719726	480.373695	0.174085	0.000000	-1.590741	-0.000000	-15.606272	-0.000000
0.020000	23.089673	1512.010932	-479.574890	0.139650	0.000000	-0.824830	0.000000	15.771850	0.000000	-22.625982	1571.671016	480.238326	0.174323	0.000000	-1.590532	-0.000000	-15.616708	-0.000000
0.021000	23.187743	1512.705604	-479.744924	0.139801	0.000000	-0.822641	0.000000	15.781631	0.000000	-22.402598	1571.653478	480.101817	0.173069	0.000000	-1.590969	-0.000000	-15.625849	-0.000000
0.022000	23.282777	1513.431541	-479.919948	0.140054	0.000000	-0.824569	0.000000	15.790996	0.000000	-22.180436	1571.664028	479.964657	0.174505	0.000000	-1.590263	-0.000000	-15.633760	-0.000000
0.023000	23.374553	1514.183623	-480.099870	0.139650	0.000000	-0.824144	0.000000	15.799907	0.000000	-21.960075	1571.698231	479.827291	0.174100	0.000000	-1.589864	-0.000000	-15.640542	-0.000000
0.024000	23.462977	1514.955765	-480.284590	0.139575	0.000000	-0.825120	0.000000	15.808279	0.000000	-21.742133	1571.750394	479.690122	0.174069	0.000000	-1.590651	-0.000000	-15.646326	-0.000000
0.025000	23.547993	1515.741416	-480.474010	0.139858	0.000000	-0.825191	0.000000	15.816000	0.000000	-21.527275	1571.814204	479.553552	0.174551	0.000000	-1.590413	-0.000000	-15.651269	-0.000000
0.026000	23.629547	1516.534052	-480.668113	0.139668	0.000000	-0.824740	0.000000	15.822947	0.000000	-21.316226	1571.883406	479.418022	0.174495	0.000000	-1.590576	0.000000	-15.655542	-0.000000
0.027000	23.707567	1517.327624	-480.867031	0.139706	0.000000	-0.826215	0.000000	15.828996	0.000000	-21.109774	1571.952552	479.284009	0.174362	0.000000	-1.590413	0.000000	-15.659325	-0.000000
0.028000	23.781953	1518.116975	-481.071007	0.139458	0.000000	-0.824490	0.000000	15.834027	0.000000	-20.908745	1572.017329	479.151999	0.174636	0.000000	-1.590122	0.000000	-15.662784	-0.000000
0.029000	23.852546	1518.898402	-481.280317	0.138997	0.000000	-0.827188	0.000000	15.837936	0.000000	-20.713933	1572.074372	479.022459	0.173776	0.000000	-1.590255	0.000000	-15.666047	-0.000000
0.030000	23.919039	1519.670169	-481.495209	0.138939	0.000000	-0.825905	0.000000	15.840655	0.000000	-20.525965	1572.121118	478.895851	0.174692	0.000000	-1.591934	0.000000	-15.669205	-0.000000
0.031000	23.980985	1520.432547	-481.715785	0.139059	0.000000	-0.824969	0.000000	15.842173	0.000000	-20.345236	1572.155750	478.772666	0.173898	0.000000	-1.589991	0.000000	-15.672343	-0.000000
0.032000	24.037925	1521.187064	-481.941854	0.138966	0.000000	-0.825211	0.000000	15.842541	0.000000	-20.171877	1572.177078	478.653425	0.174283	0.000000	-1.590128	0.000000	-15.675566	-0.000000
0.033000	24.089465	1521.935381	-482.172922	0.139484	0.000000	-0.824399	0.000000	15.841864	0.000000	-20.005752	1572.184647	478.538614	0.174364	0.000000	-1.590249	0.000000	-15.678973	-0.000000
0.034000	24.135276	1522.678700	-482.408333	0.139733	0.000000	-0.825614	0.000000	15.840267	0.000000	-19.846474	1572.179003	478.428648	0.174213	0.000000	-1.590870	0.000000	-15.682606	-0.000000
0.035000	24.175101	1523.417864	-482.647379	0.139552	0.000000	-0.824527	0.000000	15.837870	0.000000	-19.693542	1572.161549	478.323915	0.174136	0.000000	-1.590449	0.000000	-15.686457	-0.000000
0.036000	24.208703	1524.153538	-482.889308	0.139812	0.000000	-0.825193	0.000000	15.834755	0.000000	-19.546472	1572.134090	478.224844	0.174585	0.000000	-1.589811	0.000000	-15.690487	-0.000000
0.037000	24.235800	1524.886343	-483.133316	0.139287	0.000000	-0.825123	0.000000	15.830964	0.000000	-19.404829	1572.098222	478.131956	0.173839	0.000000	-1.590411	0.000000	-15.694632	-0.000000
0.038000	24.256088	1525.617031	-483.378564	0.138975	0.000000	-0.824533	0.000000	15.826507	0.000000	-19.268196	1572.054691	478.045897	0.173687	0.000000	-1.590298	0.000000	-15.698814	-0.000000
0.039000	24.269303	1526.346330	-483.624222	0.138924	0.000000	-0.824029	0.000000	15.821374	0.000000	-19.136146	1572.003361	477.967412	0.173753	0.000000	-1.589929	0.000000	-15.702971	-0.000000
0.040000	24.275255	1527.074464	-483.869501	0.139071	0.000000	-0.824965	0.000000	15.815565	0.000000	-19.008233	1571.943636	477.897234	0.173901	0.000000	-1.590366	0.000000	-15.707068	-0.000000
0.041000	24.273838	1527.800947	-484.113707	0.139730	0.000000	-0.825255	0.000000	15.809096	0.000000	-18.883991	1571.874739	477.835994	0.173680	0.000000	-1.590368	0.000000	-15.711093	-0.000000
0.042000	24.265081	1528.524947	-484.356333	0.139595	0.000000	-0.825270	0.000000	15.801981	0.000000	-18.762943	1571.795746	477.784236	0.173882	0.000000	-1.590620	0.000000	-15.715058	-0.000000
0.043000	24.249165	1529.245767	-484.597076	0.139288	0.000000	-0.824744	0.000000	15.794204	0.000000	-18.644639	1571.705464	477.742511	0.174206	0.000000	-1.589917	0.000000	-15.718999	-0.000000
0.044000	24.226371	1529.962670	-484.835716	0.139554	0.000000	-0.824750	0.000000	15.785725	0.000000	-18.528719	1571.602224	477.711472	0.174227	0.000000	-1.590456	0.000000	-15.722966	-0.000000
0.045000	24.196982	1530.674334	-485.072029	0.139575	0.000000	-0.824191	0.000000	15.776506	0.000000	-18.414951	1571.483858	477.691886	0.174078	0.000000	-1.589864	0.000000	-15.726992	-0.000000
0.046000	24.161255	1531.378850	-485.305822	0.139597	0.000000	-0.823997	0.000000	15.766523	0.000000	-18.303175	1571.348018	477.684453	0.173998	0.000000	-1.590137	0.000000	-15.731073	-0.000000
0.047000	24.119437	1532.074130	-485.536973	0.139490	0.000000	-0.824601	0.000000	15.755762	0.000000	-18.193241	1571.192670	477.689632	0.174309	0.000000	-1.590401	0.000000	-15.735168	-0.000000
0.048000	24.071750	1532.758128	-485.765430	0.139232	0.000000	-0.824416	0.000000	15.744227	0.000000	-18.085004	1571.016614	477.707659	0.173796	0.000000	-1.589904	0.000000	-15.739222	-0.000000
0.049000	24.018351	1533.428839	-485.991199	0.139236	0.000000	-0.824970	-0.000000	15.731952	0.000000	-17.978320	1570.819815	477.738661	0.173794	0.000000	-1.590517	0.000000	-15.743193	-0.000000
0.050000	23.959310	1534.084369	-486.214325	0.140061	0.000000	-0.825081	-0.000000	15.719008	0.000000	-17.873054	1570.603167	477.782683	0.173941	0.000000	-1.590160	0.000000	-15.747078	-0.000000
0.051000	23.894645	1534.723215	-486.434844	0.139145	0.000000	-0.824690	-0.000000	15.705493	0.000000	-17.769106	1570.367905	477.839670	0.173836	0.000000	-1.590059	0.000000	-15.750917	-0.000000
